<svg width="412" height="363" viewBox="0 0 412 363" fill="none" xmlns="http://www.w3.org/2000/svg">
    <path d="M59.8268 128.5H54.0309C53.2012 128.5 52.7324 129.452 53.2382 130.11L56.799 134.739C56.9296 134.908 57.1111 135.032 57.3169 135.091L63.202 136.772C63.6647 136.904 64.1559 136.688 64.3712 136.258L66.4953 132.009C66.7636 131.473 66.5023 130.822 65.9372 130.62L60.1631 128.558C60.0552 128.52 59.9414 128.5 59.8268 128.5Z" fill="#00C9DB"/>
    <path d="M65.5 178.5C70 185.5 73.1185 188.861 78 195.5L111.5 175C107.639 163.086 105.5 154 100 145C94.5 136 89.5 132 88.5 131.5C87.5 131 66.9814 128.654 63.5 130C60.0186 131.346 56.5001 133.5 56 134.5C55.5 135.5 54 138.5 56 142.5C58 146.5 61.6092 146.805 63.5 151C60.4822 156.746 61.3366 160.392 63.5 167C61.8034 172.533 64.6356 177.155 65.5 178.5Z" fill="#FFB6CD"/>
    <path d="M134.5 156L67.5 131.5L102 152.5L132 163L134.5 156Z" fill="#00C9DB"/>
    <path d="M67 131C73.2759 137.494 77.2008 140.132 85 143" stroke="#FF4A86" stroke-width="4" stroke-linecap="round"/>
    <path d="M64 150L72 155" stroke="#FF4A86" stroke-width="4" stroke-linecap="round"/>
    <path d="M92.5 360.5C104.031 325.162 119.827 309.837 174 295L239 205C305.913 101.78 321.478 53.7877 273 2.5" stroke="#FF3642" stroke-width="4" stroke-linecap="round"/>
    <path d="M45 126L9.03553 90.0355C7.08291 88.0829 7.08291 84.9171 9.03553 82.9645L33.4645 58.5355C35.4171 56.5829 38.5829 56.5829 40.5355 58.5355L63.9645 81.9645C65.9171 83.9171 65.9171 87.0829 63.9645 89.0355L48.5 104.5" stroke="#FFB800" stroke-width="4" stroke-linecap="round"/>
    <path d="M0.5 2.00002C28.2433 1.94628 52.0478 6.64974 96 37.5C139.952 68.3503 159.595 39.6837 141.5 2.00002" stroke="#00C9DB" stroke-width="4"/>
    <path d="M203.5 97.5C208.432 94.6851 211.145 90.5448 212 81L221 65.5L250.5 66.5L277.5 98.5L259 150L237.5 151L232 140.5C222.911 141.386 208.5 137.5 206 128.5C203.5 119.5 202.001 105.989 203.5 97.5Z" fill="#FFB6CD"/>
    <ellipse cx="229.5" cy="105" rx="8.5" ry="9" fill="#FFB6CD"/>
    <path d="M232.5 140C234.5 140 240.5 137.5 242 136" stroke="#FF4A86" stroke-width="4" stroke-linecap="round"/>
    <path d="M208.5 111.5C212.087 111.918 214.027 110.458 216 107.5" stroke="#FF4A86" stroke-width="5" stroke-linecap="round"/>
    <path d="M250 107C251.5 106 254.5 104.5 258 106" stroke="#FF4A86" stroke-width="5" stroke-linecap="round"/>
    <path d="M217.5 81.5C224 80 227 83 230 87" stroke="#1B2C41" stroke-width="4" stroke-linecap="round"/>
    <path d="M219 93L219.5 91.5" stroke="#1B2C41" stroke-width="5" stroke-linecap="round"/>
    <path d="M227.793 151.789C219.25 160.975 215.235 166.639 212.216 173.007C210.742 176.117 213.097 179.592 216.538 179.68L281.986 181.359C284.94 181.434 287.315 178.946 287.101 175.999L285.338 151.668C285.148 149.041 282.949 147.011 280.316 147.037C260.323 147.234 248.342 147.899 230.749 150.262C229.618 150.414 228.57 150.954 227.793 151.789Z" fill="#F7F6F0"/>
    <path d="M111.5 173.5L70 197.5C101.296 307.616 126.935 337.845 192 316.5L200 360H359C338.346 329.187 330.065 310.778 319.5 276.5L376 251.5C325.5 140.5 227.585 139.5 197 185.5C180.301 210.616 171.355 223.28 158 237C142.179 210.961 132.013 197.045 111.5 173.5Z" fill="#00C9DB"/>
    <path d="M398.128 253.169L316.468 230.857C313.748 230.114 310.952 231.765 310.29 234.506L290.622 315.86C289.994 318.457 291.518 321.088 294.083 321.836L372.167 344.592C374.831 345.368 377.618 343.827 378.376 341.158L401.619 259.359C402.38 256.683 400.811 253.902 398.128 253.169Z" fill="#FF3642"/>
    <path d="M337.5 247L391.5 261.5" stroke="white" stroke-width="4"/>
    <path d="M319.5 272.343C323 290.171 335.637 319.037 361 360H260.5L257 204H323C317.424 227.192 316 254.514 319.5 272.343Z" fill="#00C9DB"/>
    <circle cx="82" cy="204" r="6" fill="#FF3642"/>
    <path d="M158 236L163 275.5" stroke="#1B2C41" stroke-width="4" stroke-linecap="round"/>
    <path d="M192 317C212.85 301.634 223.583 290.697 241 267" stroke="#1B2C41" stroke-width="4" stroke-linecap="round"/>
    <path d="M321 204C311.5 272.5 327 303.5 358.5 359" stroke="#1B2C41" stroke-width="4" stroke-linecap="round"/>
    <path d="M284.707 45.8849C251.207 29.0681 207.103 47.0295 211.854 81.2978C214.466 69.8718 222.53 65.662 239.354 70.7978C237.9 88.7753 239.29 96.5731 245.354 104.798C269.14 89.8646 265.353 120.798 250.854 120.798C241.682 165.102 317.995 185.096 345.853 163.298C373.711 141.5 411.5 167 411.5 186V42.5C411.5 42.5 392.207 37.934 374.207 36.8752C356.207 35.8165 353.354 36.472 334.354 45.8849C315.354 55.2978 318.206 62.7016 284.707 45.8849Z" fill="#222941"/>
</svg>
